<?xml version="1.0" encoding="UTF-8"?><svg id="a" xmlns="http://www.w3.org/2000/svg" viewBox="0 0 183 32"><path d="M114,11.5c0,.3-.3.5-.6.5-.5,0-1.2,0-1.6,0-2.4,0-3.7,1.5-3.7,4.1v6.4c0,.3-.3.6-.6.6h-2c-.3,0-.6-.3-.6-.6v-12.8c0-.3.3-.6.6-.6h1.9c.3,0,.6.3.6.6v.8c.9-1,2.3-1.5,4.2-1.5s.8,0,1.1,0c.4,0,.7.3.7.7v1.8ZM92.6,15.2c-.1-.1-.1-.4,0-.5l5.2-5.1c.2-.2,0-.6-.3-.6h-3c-.1,0-.3.1-.4.2l-5.8,5.3c-.2.2-.5,0-.5-.3v-4.6c0-.3-.3-.6-.6-.6h-2.1c-.3,0-.6.3-.6.6v12.8c0,.3.3.6.6.6h2.1c.3,0,.6-.3.6-.6v-3c0-.2,0-.3,0-.4l1.8-1.7c.2-.1.4-.2.5,0l4.4,5.5c.1.1.3.2.5.2h2.9c.3,0,.5-.4.3-.6l-5.7-7.2ZM75.6,9h-2.1c-.3,0-.6.3-.6.6v12.8c0,.3.3.6.6.6h2.1c.3,0,.6-.3.6-.6v-12.8c0-.3-.3-.6-.6-.6ZM150.5,9h-12.6c-.3,0-.6.3-.6.6v1.8c0,.3.3.6.6.6h4.2c.2,0,.4.2.4.4v10c0,.3.3.6.6.6h2.1c.3,0,.6-.3.6-.6v-10c0-.2.2-.4.4-.4h4.2c.3,0,.6-.3.6-.6v-1.8c0-.3-.3-.6-.6-.6h0ZM132.8,16c0,4.1-3,7.1-7.2,7.1s-7.2-3-7.2-7.1,3-7.1,7.2-7.1,7.2,3,7.2,7.1ZM129.6,16c0-2.5-1.6-4.2-4-4.2s-3.9,1.7-3.9,4.2,1.6,4.2,3.9,4.2,4-1.7,4-4.2ZM160.2,9h-2.1c-.3,0-.6.3-.6.6v12.8c0,.3.3.6.6.6h2.1c.3,0,.6-.3.6-.6v-12.8c0-.3-.3-.6-.6-.6ZM58.7,8.9c-1.9,0-3.5.6-4.7,1.8-.2.2-.4.2-.5,0-1-1.1-2.6-1.8-4.4-1.8s-3.1.5-4.1,1.4v-.7c0-.3-.3-.6-.6-.6h-1.9c-.3,0-.6.3-.6.6v12.8c0,.3.3.6.6.6h2c.3,0,.6-.3.6-.6v-6.6c0-2.5,1.3-3.9,3.5-3.9s3,1.1,3,3.4v7.1c0,.3.3.6.6.6h2c.3,0,.6-.3.6-.6v-6.6c0-2.5,1.4-3.9,3.6-3.9s2.9,1.1,2.9,3.4v7.1c0,.3.3.6.6.6h2c.3,0,.6-.3.6-.6v-7.4c0-3.9-2.1-6.1-5.8-6.1h0ZM177.3,15.2c-.1-.1-.1-.4,0-.5l5.1-5.1c.2-.2.1-.6-.2-.6h-3c-.1,0-.3.1-.4.2l-5.8,5.3c-.2.2-.6,0-.6-.3v-4.6c0-.3-.3-.6-.6-.6h-2c-.3,0-.6.3-.6.6v12.8c0,.3.3.6.6.6h2c.3,0,.6-.3.6-.6v-3c0-.2,0-.4.2-.5l1.7-1.5c.2-.1.5-.2.6,0l4.3,5.4c.1.1.3.2.5.2h3c.3,0,.4-.4.2-.6l-5.6-7.2Z" fill="#0e0e10" stroke-width="0"/><path d="M28.1,6.7L16.8.5c-1.1-.6-2.5-.6-3.6,0L1.9,6.7c-1.2.6-1.9,1.9-1.9,3.2v12.2c0,1.3.7,2.6,1.9,3.2l11.3,6.2c1.1.6,2.5.6,3.6,0l11.3-6.2c1.2-.6,1.9-1.9,1.9-3.2v-12.2c0-1.3-.7-2.6-1.9-3.2ZM8.7,22.4c0,.2-.3.4-.5.3l-1.8-1c-.5-.3-.9-.8-.9-1.4v-5.9c0-.2.3-.3.5-.2l2.2,1.2c.3.2.5.5.5.9v6.1ZM23.7,21.7l-1.9,1c-.2.1-.5,0-.5-.3v-7.7c0-.2-.3-.4-.5-.3l-3.6,2c-.3.2-.6.5-.6.9v8c0,.1-.2.3-.3.4l-.5.3c-.5.3-1.1.3-1.6,0l-.5-.3c-.1,0-.3-.3-.3-.4v-8c0-.4-.3-.7-.6-.9l-7.1-3.9c-.1,0-.2-.2-.2-.3v-.5c0-.6.4-1.1.9-1.4l.7-.4c.3-.2.6-.2.9,0l6.5,3.6c.3.2.7.2,1,0l2.9-1.6c.2-.1.2-.5,0-.6l-6.3-3.5c-.2-.1-.3-.5-.1-.6l2.2-1.2c.5-.3,1.1-.3,1.6,0l7.8,4.3c.5.3.9.8.9,1.4v8.6c0,.6-.3,1.1-.8,1.4Z" fill="#0e0e10" stroke-width="0"/></svg>