<?xml version="1.0" encoding="UTF-8"?>
<svg id="Layer_2" data-name="Layer 2" xmlns="http://www.w3.org/2000/svg" version="1.1" viewBox="0 0 116 20">
  <g id="Layer_1-2" data-name="Layer 1-2">
    <path d="M72,6v1.1c0,.2-.2.4-.4.4-.3,0-.8,0-1,0-1.5,0-2.4.9-2.4,2.6v4.1c0,.2-.2.4-.4.4h-1.3c-.2,0-.4-.2-.4-.4V5.9c0-.2.2-.4.4-.4h1.3c.2,0,.4.2.4.4v.5c.6-.6,1.6-1,2.8-1s.4,0,.6,0c.2,0,.4.2.4.5h0ZM58.4,9.5c0,0,0-.2,0-.3l3.3-3.2c.1-.1,0-.4-.2-.4h-1.9c0,0-.2,0-.2,0l-3.7,3.4c-.1.1-.4,0-.4-.2v-3c0-.2-.2-.4-.4-.4h-1.3c-.2,0-.4.2-.4.4v8.2c0,.2.2.4.4.4h1.3c.2,0,.4-.2.4-.4v-1.9c0-.1,0-.2.1-.3l1.1-1.1c0,0,.3,0,.3,0l2.8,3.4c0,0,.2.1.3.1h1.9c.2,0,.3-.2.2-.4l-3.6-4.6h0ZM47.5,5.5h-1.3c-.2,0-.4.2-.4.4v8.2c0,.2.2.4.4.4h1.3c.2,0,.4-.2.4-.4V5.9c0-.2-.2-.4-.4-.4ZM95.2,5.5h-8c-.2,0-.4.2-.4.4v1.2c0,.2.2.4.4.4h2.7c.1,0,.2.1.2.2v6.4c0,.2.2.4.4.4h1.4c.2,0,.4-.2.4-.4v-6.4c0-.1.1-.2.2-.2h2.7c.2,0,.4-.2.4-.4v-1.2c0-.2-.2-.4-.4-.4h0ZM84,10c0,2.6-1.9,4.6-4.6,4.6s-4.6-1.9-4.6-4.6,1.9-4.5,4.6-4.5,4.6,1.9,4.6,4.5ZM81.9,10c0-1.6-1-2.7-2.5-2.7s-2.5,1.1-2.5,2.7,1,2.7,2.5,2.7,2.5-1.1,2.5-2.7ZM101.4,5.5h-1.3c-.2,0-.4.2-.4.4v8.2c0,.2.2.4.4.4h1.3c.2,0,.4-.2.4-.4V5.9c0-.2-.2-.4-.4-.4ZM36.7,5.5c-1.2,0-2.3.4-3,1.1,0,0-.3,0-.3,0-.6-.7-1.6-1.1-2.8-1.1s-2,.3-2.6.9v-.5c0-.2-.2-.4-.4-.4h-1.3c-.2,0-.4.2-.4.4v8.2c0,.2.2.4.4.4h1.3c.2,0,.4-.2.4-.4v-4.2c0-1.6.8-2.5,2.2-2.5s1.9.7,1.9,2.2v4.6c0,.2.2.4.4.4h1.3c.2,0,.4-.2.4-.4v-4.2c0-1.6.8-2.5,2.2-2.5s1.9.7,1.9,2.2v4.6c0,.2.2.4.4.4h1.3c.2,0,.4-.2.4-.4v-4.7c0-2.5-1.3-3.9-3.7-3.9h0ZM116,14.1l-3.6-4.6c0,0,0-.2,0-.3l3.3-3.2c.1-.1,0-.4-.2-.4h-1.9c0,0-.2,0-.2,0l-3.7,3.4c-.1.1-.4,0-.4-.2v-3c0-.2-.2-.4-.4-.4h-1.3c-.2,0-.4.2-.4.4v8.2c0,.2.2.4.4.4h1.3c.2,0,.4-.2.4-.4v-1.9c0-.1,0-.2.1-.3l1.1-1.1c0,0,.3,0,.3,0l2.8,3.4c0,0,.2.1.3.1h1.9c.2,0,.3-.2.2-.4h0Z" style="fill: #0e0e10; stroke-width: 0px;"/>
    <path d="M18.7,6.2c0-.8-.4-1.5-1.1-1.9L10.4.3c-.7-.4-1.5-.4-2.1,0L1.1,4.3c-.7.4-1.1,1.1-1.1,1.9v7.7c0,.8.4,1.5,1.1,1.9l7.2,4c.7.4,1.5.4,2.1,0l7.2-4c.7-.4,1.1-1.1,1.1-1.9v-7.7h0ZM5.4,13.8c0,.2-.2.3-.3.2l-1.2-.7c-.3-.1-.4-.4-.4-.7v-3.6c0-.2.2-.3.3-.2l1.3.7c.2,0,.3.3.3.5v3.8ZM15.3,12.6c0,.3-.2.5-.4.7l-1.2.7c-.2,0-.3,0-.3-.2v-4.6c0-.2-.2-.3-.3-.2l-2.2,1.2c-.3.1-.4.4-.4.7v4.7c0,.1,0,.3-.2.3l-.5.3c-.2.1-.5.1-.8,0l-.4-.2c-.1,0-.2-.2-.2-.3v-4.8c0-.3-.2-.5-.4-.7l-4.4-2.4c0,0-.1-.1-.1-.2v-.2c0-.3.2-.5.4-.7l.6-.3c.2-.1.5-.1.8,0l3.8,2.1c.2.1.5.1.8,0l1.7-.9c.2,0,.2-.3,0-.4l-3.8-2.1c-.2,0-.2-.3,0-.4l1.3-.7c.2-.1.5-.1.8,0l5.2,2.9c.3.1.4.4.4.7v5.3h0Z" style="fill: #0e0e10; stroke-width: 0px;"/>
  </g>
</svg>